# AST/ASF file generated using VICON BodyLanguage
# -----------------------------------------------
:version 1.10
:name VICON
:units
  mass 1.0
  length 0.45
  angle deg
:documentation
   .ast/.asf automatically generated from VICON data using
   VICON BodyBuilder and BodyLanguage model FoxedUp or BRILLIANT.MOD
:root
   order TX TY TZ RX RY RZ
   axis XYZ
   position 0 0 0  
   orientation 0 0 0 
:bonedata
  begin
     id 1 
     name lhipjoint
     direction 0.567149 -0.783011 0.255413 
     length 2.28399 
     axis 0 0 0  XYZ
  end
  begin
     id 2 
     name lfemur
     direction 0.34202 -0.939693 0  
     length 7.34031  
     axis 0 0 20  XYZ
    dof rx ry rz
    limits (-160.0 20.0)
           (-70.0 70.0)
           (-60.0 70.0)
  end
  begin
     id 3 
     name ltibia
     direction 0.34202 -0.939693 0   
     length 6.9833   
     axis 0 0 20   XYZ
    dof rx
    limits (-10.0 170.0)
  end
  begin
     id 4 
     name lfoot
     direction 0.136498 -0.375025 0.91691   
     length 2.33665   
     axis -90 7.62852e-016 20   XYZ
    dof rx rz
    limits (-45.0 90.0)
           (-70.0 20.0)
  end
  begin
     id 5 
     name ltoes
     direction 1.5367e-011 -4.21617e-011 1   
     length 1.15039   
     axis -90 7.62852e-016 20   XYZ
    dof rx
    limits (-90.0 20.0)
  end
  begin
     id 6 
     name rhipjoint
     direction -0.602854 -0.758518 0.247423   
     length 2.35775  
     axis 0 0 0  XYZ 
  end
  begin
     id 7 
     name rfemur
     direction -0.34202 -0.939693 0   
     length 7.43932   
     axis 0 0 -20   XYZ
    dof rx ry rz
    limits (-160.0 20.0)
           (-70.0 70.0)
           (-70.0 60.0)
  end
  begin
     id 8 
     name rtibia
     direction -0.34202 -0.939693 0   
     length 7.11893   
     axis 0 0 -20   XYZ
    dof rx
    limits (-10.0 170.0)
 end
 begin
     id 9 
     name rfoot
     direction -0.131771 -0.362037 0.922803   
     length 2.53019  
     axis -90 -7.62852e-016 -20   XYZ
    dof rx rz
    limits (-45.0 90.0)
           (-20.0 70.0)
  end
  begin
     id 10 
     name rtoes
     direction -1.53733e-011 -4.21932e-011 1   
     length 1.24596   
     axis -90 -7.62852e-016 -20   XYZ
    dof rx
    limits (-90.0 20.0)
  end
  begin
     id 11 
     name lowerback
     direction 0.0235427 0.999023 -0.0374125   
     length 2.21768   
     axis 0 0 0   XYZ
    dof rx ry rz
    limits (-20.0 45.0)
           (-30.0 30.0)
           (-30.0 30.0)
  end
  begin
     id 12 
     name upperback
     direction 0.0302156 0.996818 -0.073759   
     length 2.20352   
     axis 0 0 0   XYZ
    dof rx ry rz
    limits (-20.0 45.0)
           (-30.0 30.0)
           (-30.0 30.0)
  end
  begin
     id 13 
     name thorax
     direction 0.0187169 0.998235 -0.0563532   
     length 2.22103   
     axis 0 0 0   XYZ
    dof rx ry rz
    limits (-20.0 45.0)
           (-30.0 30.0)
           (-30.0 30.0)
  end
  begin
     id 14 
     name lowerneck
     direction -0.119528 0.987423 0.103481   
     length 1.72948   
     axis 0 0 0   XYZ
    dof rx ry rz
    limits (-20.0 45.0)
           (-30.0 30.0)
           (-30.0 30.0)
  end
  begin
     id 15 
     name upperneck
     direction 0.248049 0.963095 -0.104496   
     length 1.74979   
     axis 0 0 0   XYZ
    dof rx ry rz
    limits (-20.0 45.0)
           (-30.0 30.0)
           (-30.0 30.0)
  end
  begin
     id 16
     name head
     direction 0.0903589 0.994284 -0.056876  
     length 1.78268  
     axis 0 0 0   XYZ
    dof rx ry rz
    limits (-20.0 45.0)
           (-30.0 30.0)
           (-30.0 30.0)
  end
  begin
     id 17 
     name lclavicle
     direction 0.946008 0.242039 -0.215608  
     length 3.80783  
     axis 0 0 0   XYZ
    dof ry rz
    limits (-20.0 10.0)
           (0.0 20.0)
  end
  begin
     id 18 
     name lhumerus
     direction 1 -4.48991e-011 -2.25695e-027   
     length 4.83125   
     axis 180 -30 -90   XYZ
    dof rx ry rz
    limits (-60.0 90.0)
           (-90.0 90.0)
           (-90.0 90.0)
  end
  begin
     id 19
     name lradius
     direction 0.999991 0.00366712 -0.00211721   
     length 3.00391   
     axis 180 -30 -90   XYZ
    dof rx
    limits (-10.0 170.0)
  end
  begin
     id 20
     name lwrist
     direction 0.999991 0.00393016 -0.00141978   
     length 1.50195   
     axis -1.00488e-014 90 90   XYZ
    dof ry
    limits (-180.0 0.0)
 end
  begin
     id 21 
     name lhand
     direction 1 -4.49123e-011 2.72098e-026   
     length 1.2717   
     axis -1.73687e-014 90 90   XYZ
    dof rx rz
    limits (-90.0 90.0)
           (-45.0 45.0)
  end
  begin
     id 22 
     name lfingers
     direction 1 -4.48678e-011 5.4479e-026   
     length 1.02528   
     axis -3.47372e-014 90 90   XYZ
    dof rx
    limits (0.0 90.0)
  end
  begin
     id 23
     name lthumb
     direction 0.707107 -6.34851e-011 0.707107   
     length 1.4721   
     axis -90 45 -1.62303e-014   XYZ
    dof rx rz
    limits (-45.0 45.0)
           (-45.0 45.0)
  end
  begin
     id 24 
     name rclavicle
     direction -0.981723 0.189447 -0.0181673   
     length 3.74989  
     axis 0 0 0   XYZ 
    dof ry rz
    limits (-10.0 20.0)
           (-20.0 0.0)
  end
  begin
     id 25 
     name rhumerus
     direction -1 -4.48985e-011 2.38206e-027  
     length 4.61118   
     axis 180 30 90   XYZ
    dof rx ry rz
    limits (-90.0 60.0)
           (-90.0 90.0)
           (-90.0 90.0)
  end
  begin
     id 26 
     name rradius
     direction -1 -4.48977e-011 7.41019e-027   
     length 2.91491   
     axis 180 30 90   XYZ
    dof rx
    limits (-10.0 170.0)
  end
  begin
     id 27 
     name rwrist
     direction -1 -4.48549e-011 1.3624e-026   
     length 1.45745   
     axis -1.00488e-014 -90 -90   XYZ
    dof ry
    limits (-180.0 0.0)
  end
  begin
     id 28
     name rhand
     direction -1 -4.49107e-011 2.72109e-026   
     length 1.30769   
     axis -1.73687e-014 -90 -90   XYZ
    dof rx rz
    limits (-90.0 90.0)
           (-45.0 45.0)
  end
  begin
     id 29
     name rfingers
     direction -1 -4.48919e-011 5.44468e-026   
     length 1.05429   
     axis -3.47372e-014 -90 -90   XYZ
    dof rx
    limits (0.0 90.0)
  end
  begin
     id 30
     name rthumb
     direction -0.707107 -6.35315e-011 0.707107   
     length 1.51376   
     axis -90 -45 1.62303e-014   XYZ
    dof rx rz
    limits (-45.0 45.0)
           (-45.0 45.0)
  end
:hierarchy
  begin
    root lhipjoint rhipjoint lowerback
    lhipjoint lfemur
    lfemur ltibia
    ltibia lfoot
    lfoot ltoes
    rhipjoint rfemur
    rfemur rtibia
    rtibia rfoot
    rfoot rtoes
    lowerback upperback
    upperback thorax
    thorax lowerneck lclavicle rclavicle
    lowerneck upperneck
    upperneck head
    lclavicle lhumerus
    lhumerus lradius
    lradius lwrist
    lwrist lhand lthumb
    lhand lfingers
    rclavicle rhumerus
    rhumerus rradius
    rradius rwrist
    rwrist rhand rthumb
    rhand rfingers
  end

#!OML:ASF X:\für Bonn\!DataBase\2005_08_11_Bastian_Final\c3d\Bastian.ASF
:FULLY-SPECIFIED
:DEGREES
18
root 1.29272 19.2497 4.88677 543.769 -186.091 -179.601
lowerback -10.6601 -4.06828 -3.06438
upperback -1.26423 -5.0144 -0.512648
thorax 4.85697 -2.52537 0.439291
lowerneck -0.457691 -2.13308 -2.19021
upperneck -2.37298 -2.73025 6.9732
head -0.529158 -1.3954 2.58586
rclavicle 5.84675e-014 2.78299e-015
rhumerus -51.2738 27.4786 -96.4459
rradius 98.0622
rwrist 8.26608
rhand -19.3071 21.013
rfingers 7.12502
rthumb 7.0087 -8.851
lclavicle 5.84675e-014 2.78299e-015
lhumerus -33.3689 -15.5733 76.2447
lradius 104.906
lwrist -145.538
lhand -33.7747 12.4032
lfingers 7.12502
lthumb -6.96209 42.2687
rfemur -0.55754 4.54416 22.3246
rtibia 35.6092
rfoot 11.2358 -2.06144
rtoes -18.092
lfemur -2.69004 -0.854561 -14.2432
ltibia 39.9857
lfoot 20.4437 -10.9943
ltoes -33.6262
19
root 1.2752 19.5366 5.11651 543.68 -186.16 -179.579
lowerback -10.707 -4.19804 -3.25702
upperback -1.28073 -5.16078 -0.535783
thorax 4.88577 -2.60063 0.496148
lowerneck -0.504074 -2.06226 -2.20207
upperneck -2.06763 -2.64981 7.12273
head -0.427148 -1.35032 2.63398
rclavicle 1.62258e-014 -1.59028e-015
rhumerus -51.5457 28.5531 -96.2532
rradius 100.999
rwrist 8.248
rhand -19.1922 21.504
rfingers 7.12502
rthumb 7.11967 -8.3562
lclavicle 1.62258e-014 -1.59028e-015
lhumerus -33.5593 -15.9809 75.6866
lradius 108.062
lwrist -144.718
lhand -33.5426 13.0216
lfingers 7.12502
lthumb -6.73803 42.8944
rfemur -0.408118 4.79309 22.5503
rtibia 35.9426
rfoot 14.1071 -2.26462
rtoes -16.8573
lfemur -3.21798 -0.967373 -14.2399
ltibia 41.0395
lfoot 21.3088 -10.9602
ltoes -33.9394
20
root 1.25804 19.8125 5.33983 543.408 -186.21 -179.233
lowerback -10.3221 -4.32435 -3.78081
upperback -1.18321 -5.2779 -0.656402
thorax 4.81467 -2.6683 0.666225
lowerneck -0.778668 -2.0056 -2.15879
upperneck -1.77867 -2.58804 7.2324
head -0.291288 -1.31042 2.65615
rclavicle -1.0066e-013 -1.03368e-014
rhumerus -51.6975 29.4275 -96.0071
rradius 103.763
rwrist 7.89476
rhand -19.3568 22.4749
rfingers 7.12502
rthumb 6.96071 -7.3907
lclavicle -1.0066e-013 -1.03368e-014
lhumerus -33.6026 -16.2207 75.0846
lradius 111.19
lwrist -143.916
lhand -33.2779 13.154
lfingers 7.12502
lthumb -6.48254 43.0348
rfemur -0.286459 4.44504 22.2847
rtibia 36.8354
rfoot 16.0797 -2.1086
rtoes -15.2781
lfemur -3.71328 -0.855654 -14.622
ltibia 42.5428
lfoot 21.7155 -11.1042
ltoes -34.0972
21
root 1.24117 20.0735 5.55388 543.201 -186.26 -179.28
lowerback -9.85332 -4.40388 -3.84334
upperback -1.07235 -5.39628 -0.699999
thorax 4.67709 -2.72878 0.668692
lowerneck -1.21577 -1.95531 -2.04899
upperneck -1.43593 -2.53938 7.32883
head -0.111018 -1.27283 2.66001
rclavicle -3.51352e-014 0
rhumerus -51.8844 30.1476 -95.7741
rradius 106.449
rwrist 7.57116
rhand -19.047 22.7712
rfingers 7.12502
rthumb 7.2598 -7.08429
lclavicle -3.51352e-014 0
lhumerus -33.5308 -16.2617 74.3783
lradius 114.27
lwrist -143.04
lhand -33.1679 12.49
lfingers 7.12502
lthumb -6.37635 42.3741
rfemur -0.547529 3.71122 22.3478
rtibia 38.1994
rfoot 17.4252 -1.75077
rtoes -13.8221
lfemur -4.54087 -0.573934 -14.5627
ltibia 44.4924
lfoot 21.8286 -11.1304
ltoes -33.5238
22
root 1.22521 20.3158 5.76181 543.047 -186.292 -179.478
lowerback -9.3716 -4.47188 -3.76072
upperback -0.926065 -5.51926 -0.660698
thorax 4.56382 -2.79045 0.67699
lowerneck -1.65131 -1.90585 -2.06797
upperneck -1.17609 -2.4872 7.47212
head 0.0452748 -1.23375 2.70527
rclavicle -7.50661e-014 -9.93923e-015
rhumerus -52.0985 30.8569 -95.4797
rradius 108.976
rwrist 7.32248
rhand -18.0696 22.1164
rfingers 7.12502
rthumb 8.2032 -7.7043
lclavicle -7.50661e-014 -9.93923e-015
lhumerus -33.4261 -16.1242 73.8085
lradius 116.892
lwrist -141.91
lhand -33.1389 11.9703
lfingers 7.12502
lthumb -6.34835 41.8552
rfemur -1.12482 2.67383 22.4888
rtibia 39.9954
rfoot 18.2922 -1.27447
rtoes -12.9545
lfemur -5.59375 -0.201529 -14.3438
ltibia 46.7974
lfoot 21.6212 -11.1664
ltoes -32.9397
23
root 1.20958 20.546 5.96024 542.883 -186.322 -179.831
lowerback -8.75386 -4.50713 -3.48771
upperback -0.754742 -5.62328 -0.611088
thorax 4.38197 -2.83962 0.605394
lowerneck -2.0235 -1.87088 -2.01984
upperneck -0.996086 -2.45197 7.60829
head 0.165619 -1.20557 2.73775
rclavicle -4.11484e-014 3.97569e-016
rhumerus -52.3046 31.3744 -95.2235
rradius 111.26
rwrist 7.23776
rhand -17.3792 21.5455
rfingers 7.12502
rthumb 8.86941 -8.24812
lclavicle -4.11484e-014 3.97569e-016
lhumerus -33.4137 -16.1454 73.3899
lradius 118.776
lwrist -140.885
lhand -32.8267 12.9591
lfingers 7.12502
lthumb -6.04695 42.8528
rfemur -1.91376 1.5534 22.7942
rtibia 42.149
rfoot 18.8037 -0.697157
rtoes -12.7745
lfemur -6.80797 0.198216 -13.9758
ltibia 49.3443
lfoot 21.2796 -11.155
ltoes -32.805
24
root 1.1943 20.7761 6.15251 542.753 -186.328 -180.304
lowerback -8.0522 -4.51457 -3.06482
upperback -0.562449 -5.70487 -0.531407
thorax 4.16114 -2.87566 0.493056
lowerneck -2.34332 -1.84688 -1.89561
upperneck -0.930791 -2.42701 7.62609
head 0.238541 -1.18591 2.71781
rclavicle -3.65267e-015 9.14409e-015
rhumerus -52.363 31.8363 -94.9873
rradius 113.032
rwrist 7.37552
rhand -17.2027 21.3729
rfingers 7.12502
rthumb 9.03976 -8.4134
lclavicle -3.65267e-015 9.14409e-015
lhumerus -33.3971 -16.0366 73.0821
lradius 120.345
lwrist -139.96
lhand -32.5703 13.8721
lfingers 7.12502
lthumb -5.79936 43.7728
rfemur -2.94503 0.456957 23.2432
rtibia 44.6536
rfoot 19.0238 -0.350035
rtoes -12.2784
lfemur -8.20856 0.684797 -13.4924
ltibia 51.9931
lfoot 20.9194 -10.9846
ltoes -32.6965
25
root 1.17804 21.0104 6.34119 542.607 -186.336 -180.81
lowerback -7.22004 -4.50426 -2.61783
upperback -0.342173 -5.76256 -0.448172
thorax 3.89191 -2.89993 0.384994
lowerneck -2.63441 -1.85231 -1.52523
upperneck -0.937766 -2.44365 7.37361
head 0.277755 -1.1906 2.56236
rclavicle -1.227e-013 -8.34896e-015
rhumerus -52.308 32.188 -94.6788
rradius 114.468
rwrist 7.65437
rhand -17.2832 21.448
rfingers 7.12502
rthumb 8.96205 -8.34165
lclavicle -1.227e-013 -8.34896e-015
lhumerus -33.438 -15.7831 72.8163
lradius 121.784
lwrist -138.572
lhand -32.5754 13.909
lfingers 7.12502
lthumb -5.80428 43.8096
rfemur -4.11959 -0.600945 23.757
rtibia 47.4559
rfoot 19.0539 -0.339282
rtoes -11.8616
lfemur -9.65297 1.21318 -12.9624
ltibia 54.6346
lfoot 20.6287 -10.6218
ltoes -33.0454
26
root 1.1636 21.2324 6.52166 542.484 -186.316 -181.284
lowerback -6.30267 -4.49516 -2.18592
upperback -0.107281 -5.81507 -0.350718
thorax 3.59133 -2.92233 0.308021
lowerneck -2.88757 -1.8619 -1.15447
upperneck -1.0683 -2.4601 7.03923
head 0.269952 -1.19918 2.38174
rclavicle 5.9095e-014 5.1684e-015
rhumerus -52.1253 32.5475 -94.2756
rradius 115.533
rwrist 7.90179
rhand -17.5447 21.7926
rfingers 7.12502
rthumb 8.70974 -8.00774
lclavicle 5.9095e-014 5.1684e-015
lhumerus -33.6351 -15.4428 72.7463
lradius 123.208
lwrist -137.299
lhand -32.6221 13.1945
lfingers 7.12502
lthumb -5.84932 43.0938
rfemur -5.49685 -1.63273 24.2398
rtibia 50.5192
rfoot 19.0427 -0.632957
rtoes -12.0032
lfemur -11.1485 1.75329 -12.4851
ltibia 57.2439
lfoot 20.3706 -9.99844
ltoes -33.2125
27
root 1.14943 21.4348 6.695 542.283 -186.294 -181.614
lowerback -5.26589 -4.49921 -1.91818
upperback 0.211879 -5.86622 -0.293088
thorax 3.32189 -2.94723 0.287312
lowerneck -3.17664 -1.8661 -0.799047
upperneck -1.30288 -2.46586 6.76629
head 0.236345 -1.20418 2.22593
rclavicle 6.55197e-014 9.14409e-015
rhumerus -51.7117 32.8498 -93.8734
rradius 116.206
rwrist 7.97004
rhand -17.6009 22.0923
rfingers 7.12502
rthumb 8.65544 -7.71031
lclavicle 6.55197e-014 9.14409e-015
lhumerus -33.9487 -15.1147 72.8369
lradius 124.63
lwrist -136.586
lhand -32.5495 12.2286
lfingers 7.12502
lthumb -5.77925 42.1298
rfemur -6.91205 -2.65258 24.5543
rtibia 53.7198
rfoot 19.0439 -1.20794
rtoes -11.9167
lfemur -12.5519 2.22211 -12.1673
ltibia 59.7611
lfoot 20.2141 -9.0364
ltoes -32.7051
28
root 1.13609 21.6213 6.86154 541.958 -186.237 -181.794
lowerback -4.05517 -4.49572 -1.80913
upperback 0.617477 -5.89417 -0.28009
thorax 3.05367 -2.96329 0.321381
lowerneck -3.54275 -1.86874 -0.579798
upperneck -1.54014 -2.4685 6.68394
head 0.219976 -1.20554 2.15742
rclavicle -9.02793e-014 -5.96354e-015
rhumerus -50.9926 33.1225 -93.3989
rradius 116.492
rwrist 7.84231
rhand -17.4041 22.2538
rfingers 7.12502
rthumb 8.84538 -7.54085
lclavicle -9.02793e-014 -5.96354e-015
lhumerus -34.2811 -14.9364 73.132
lradius 125.911
lwrist -136.441
lhand -32.1942 11.2371
lfingers 7.12502
lthumb -5.43623 41.1473
rfemur -8.2637 -3.58496 24.705
rtibia 56.9889
rfoot 18.9664 -1.95806
rtoes -11.1953
lfemur -13.8186 2.60567 -12.051
ltibia 62.2232
lfoot 20.0277 -7.8785
ltoes -32.0422
29
root 1.12238 21.8134 7.01945 541.59 -186.122 -181.855
lowerback -2.60536 -4.48173 -1.82018
upperback 0.988806 -5.90421 -0.305499
thorax 2.62267 -2.97115 0.406541
lowerneck -3.75173 -1.85271 -0.503918
upperneck -1.85402 -2.43571 6.82722
head 0.157389 -1.1925 2.19091
rclavicle 2.16178e-014 -3.97569e-016
rhumerus -50.2675 33.3677 -93.0391
rradius 116.484
rwrist 7.6281
rhand -17.2162 22.4494
rfingers 7.12502
rthumb 9.02674 -7.33746
lclavicle 2.16178e-014 -3.97569e-016
lhumerus -34.7463 -14.8655 73.6464
lradius 126.856
lwrist -136.71
lhand -31.7036 10.6643
lfingers 7.12502
lthumb -4.96251 40.5862
rfemur -9.59127 -4.38569 24.7161
rtibia 60.1138
rfoot 18.8153 -2.74595
rtoes -9.94686
lfemur -14.9724 2.99355 -12.1101
ltibia 64.5121
lfoot 19.776 -6.70016
ltoes -31.5043
30
root 1.11085 21.9727 7.15939 541.154 -186 -181.856
lowerback -0.988362 -4.43309 -1.87179
upperback 1.40015 -5.86882 -0.371574
thorax 2.13757 -2.95583 0.487033
lowerneck -4.03418 -1.85574 -0.494057
upperneck -2.12364 -2.42904 7.12301
head 0.125444 -1.18953 2.28536
rclavicle -2.23633e-015 1.59028e-015
rhumerus -49.5062 33.4408 -92.6904
rradius 116.261
rwrist 7.63734
rhand -17.413 22.8564
rfingers 7.12502
rthumb 8.83686 -6.9386
lclavicle -2.23633e-015 1.59028e-015
lhumerus -35.0443 -14.9768 74.3227
lradius 127.403
lwrist -137.283
lhand -31.0155 10.6489
lfingers 7.12502
lthumb -4.29811 40.5852
rfemur -10.9424 -5.07846 24.6609
rtibia 63.1318
rfoot 18.6008 -3.46347
rtoes -8.62225
lfemur -16.1477 3.29965 -12.2788
ltibia 66.752
lfoot 19.5695 -5.469
ltoes -30.7114
31
root 1.09908 22.1231 7.3047 540.748 -185.888 -181.855
lowerback 0.544534 -4.40137 -1.96737
upperback 1.78189 -5.85551 -0.396571
thorax 1.67896 -2.95128 0.625876
lowerneck -4.13787 -1.84559 -0.547258
upperneck -2.45634 -2.39454 7.41258
head 0.04283 -1.17741 2.39198
rclavicle -7.26558e-014 -5.56597e-015
rhumerus -48.8208 33.5436 -92.361
rradius 115.87
rwrist 7.6248
rhand -17.4696 23.0371
rfingers 7.12502
rthumb 8.78221 -6.76022
lclavicle -7.26558e-014 -5.56597e-015
lhumerus -35.3663 -15.0534 75.1668
lradius 127.807
lwrist -138.202
lhand -30.248 10.7576
lfingers 7.12502
lthumb -3.55691 40.7077
rfemur -12.2602 -5.67628 24.6232
rtibia 65.9255
rfoot 18.2622 -4.01328
rtoes -7.50033
lfemur -17.2801 3.56251 -12.4625
ltibia 68.8118
lfoot 19.2994 -4.36795
ltoes -30.345
